<svg width="570" height="264" viewBox="0 0 570 264" fill="none" xmlns="http://www.w3.org/2000/svg">
<path d="M88.6295 198L52.6059 132.615H42.4897V198H0.297685V24.7907H71.1112C84.7639 24.7907 96.3606 27.1758 105.901 31.9461C115.606 36.7163 122.844 43.296 127.614 51.685C132.384 59.9096 134.769 69.1211 134.769 79.3196C134.769 90.834 131.479 101.115 124.9 110.162C118.485 119.209 108.944 125.624 96.2783 129.407L136.25 198H88.6295ZM42.4897 102.76H68.6438C76.3749 102.76 82.1321 100.868 85.9154 97.0846C89.8632 93.3013 91.8371 87.9554 91.8371 81.0467C91.8371 74.4671 89.8632 69.2856 85.9154 65.5023C82.1321 61.719 76.3749 59.8274 68.6438 59.8274H42.4897V102.76ZM182.474 46.0101C175.072 46.0101 168.986 43.8717 164.216 39.5949C159.61 35.1537 157.307 29.7255 157.307 23.3103C157.307 16.7307 159.61 11.3024 164.216 7.02567C168.986 2.5844 175.072 0.363771 182.474 0.363771C189.712 0.363771 195.634 2.5844 200.239 7.02567C205.01 11.3024 207.395 16.7307 207.395 23.3103C207.395 29.7255 205.01 35.1537 200.239 39.5949C195.634 43.8717 189.712 46.0101 182.474 46.0101ZM203.447 60.3208V198H161.255V60.3208H203.447ZM276.215 15.4147V198H234.023V15.4147H276.215ZM346.269 163.21H405.979V198H299.142V164.444L356.385 95.1107H299.636V60.3208H404.746V93.877L346.269 163.21ZM569.836 60.3208L483.478 263.385H438.078L469.661 193.312L413.651 60.3208H460.778L492.607 146.432L524.189 60.3208H569.836Z" fill="black"/>
</svg>
